#Unknown ASF file
:ROOT_YZX
:FOOT_3DOF
:FULLY-SPECIFIED
:DEGREES
950
root -4.978 17.6707 -22.1477 -4.63187 152.793 1.15533
lfemur -12.3142 -1.25576 -18.7389
ltibia 37.0227
lfoot -16.0549 0 -9.67428
ltoes -18.3582
rfemur -13.3685 -11.4043 17.3913
rtibia 73.4382
rfoot 7.81607 0 -5.50376
rtoes -7.00356
lowerback 11.9873 2.23477 -3.53344
upperback 2.39425 2.75948 1.1838
thorax -4.42442 1.49241 2.79129
lowerneck -6.11705 -11.9016 -23.2949
upperneck 16.3811 -16.0112 16.5138
head 9.46288 -7.73746 7.56537
lclavicle -2.91468e-014 -1.31198e-014
lhumerus -37.4193 11.8688 79.6683
lradius 25.744
lwrist -1.88995
lhand -11.6469 28.9825
lfingers 7.12502
lthumb 14.3973 58.4631
rclavicle -2.91468e-014 -1.31198e-014
rhumerus -29.3017 -4.16359 -82.7035
rradius 29.7856
rwrist 4.8184
rhand -20.551 12.5305
rfingers 7.12502
rthumb 5.80787 -17.3699
951
root -4.79764 17.65 -22.5592 -4.93228 150.97 1.92819
lfemur -9.87426 -0.562091 -19.702
ltibia 36.9336
lfoot -17.9856 0 -8.08739
ltoes -20.2378
rfemur -17.3475 -12.8832 16.075
rtibia 74.7112
rfoot 0.867474 0 -5.85718
rtoes -6.898
lowerback 12.4941 1.8044 -4.52966
upperback 2.1187 2.01994 1.18984
thorax -4.96901 1.15009 3.46679
lowerneck -6.34589 -11.5386 -22.3087
upperneck 16.949 -15.495 15.9477
head 9.44326 -7.45653 7.3011
lclavicle 2.11706e-014 -3.57812e-015
lhumerus -35.5875 13.1648 78.5166
lradius 23.2042
lwrist -4.12956
lhand -12.438 29.206
lfingers 7.12502
lthumb 13.6349 58.7394
rclavicle 2.11706e-014 -3.57812e-015
rhumerus -30.8257 -6.64777 -81.8279
rradius 27.7164
rwrist 5.39344
rhand -22.2104 15.3049
rfingers 7.12502
rthumb 4.20556 -14.6333
952
root -4.62309 17.6497 -22.9051 -4.85015 149.762 2.16196
lfemur -8.28854 -0.0143787 -20.0196
ltibia 36.8266
lfoot -18.9188 0 -6.98699
ltoes -21.7793
rfemur -21.3177 -14.1741 16.153
rtibia 72.9584
rfoot -5.33453 0 -4.75806
rtoes -9.09796
lowerback 12.3002 1.13923 -4.59814
upperback 2.41666 1.15473 1.11499
thorax -4.46322 0.713301 3.57754
lowerneck -8.08809 -11.2129 -20.6647
upperneck 18.1328 -14.8188 14.906
head 9.79694 -7.03169 6.72644
lclavicle -4.12478e-015 -1.11319e-014
lhumerus -32.5914 14.9342 77.1256
lradius 21.4245
lwrist -6.39324
lhand -11.463 31.4561
lfingers 7.12502
lthumb 14.5745 60.9241
rclavicle -4.12478e-015 -1.11319e-014
rhumerus -31.9051 -8.44306 -81.3139
rradius 27.5914
rwrist 4.94849
rhand -22.3876 13.6584
rfingers 7.12502
rthumb 4.0345 -16.2832
953
root -4.42741 17.6562 -23.2572 -4.66424 148.209 3.06106
lfemur -6.18218 0.732258 -21.1306
ltibia 35.9649
lfoot -19.4103 0 -5.64158
ltoes -24.7427
rfemur -24.455 -14.9643 15.9349
rtibia 68.3624
rfoot -9.99828 0 -5.65988
rtoes -9.55341
lowerback 11.8615 0.420037 -5.3718
upperback 2.58371 0.122983 0.905505
thorax -3.94297 0.195186 3.95952
lowerneck -9.3156 -10.8686 -20.4378
upperneck 19.3143 -14.3166 15.312
head 10.3612 -6.68099 6.92103
lclavicle -5.58088e-014 -1.07344e-014
lhumerus -30.7167 15.7216 75.9849
lradius 20.7006
lwrist -8.09847
lhand -13.3076 31.0394
lfingers 7.12502
lthumb 12.7967 60.6272
rclavicle -5.58088e-014 -1.07344e-014
rhumerus -32.6941 -8.79176 -81.1256
rradius 26.7019
rwrist 3.66378
rhand -22.1479 13.708
rfingers 7.12502
rthumb 4.26593 -16.229
954
root -4.21163 17.7257 -23.5776 -4.13433 145.839 3.29331
lfemur -4.32585 1.64685 -21.4862
ltibia 34.656
lfoot -18.7516 0 -3.94177
ltoes -22.2612
rfemur -26.8885 -14.5874 17.0493
rtibia 60.8617
rfoot -12.3621 0 -8.95458
rtoes -5.21194
lowerback 12.009 -0.00961969 -5.89461
upperback 2.04674 -0.556778 1.22124
thorax -4.50727 -0.119195 4.70063
lowerneck -10.4274 -10.2666 -19.4972
upperneck 20.6907 -13.2854 14.2878
head 10.6991 -6.16884 6.5666
lclavicle 4.91495e-014 -7.95139e-015
lhumerus -30.9153 14.7846 75.6171
lradius 22.7325
lwrist -6.73721
lhand -14.0235 31.5309
lfingers 7.12502
lthumb 12.1065 61.1606
rclavicle 4.91495e-014 -7.95139e-015
rhumerus -33.9048 -9.77228 -79.7506
rradius 25.2989
rwrist 5.17138
rhand -21.2479 12.8046
rfingers 7.12502
rthumb 5.13502 -17.1131
955
root -3.9776 17.811 -23.8995 -3.45932 144.135 4.253
lfemur -1.8686 2.57586 -22.6249
ltibia 31.85
lfoot -17.8953 0 -2.49767
ltoes -27.6468
rfemur -28.3227 -14.9626 17.25
rtibia 51.3633
rfoot -12.9276 0 -11.9632
rtoes -3.69863
lowerback 11.5977 -0.533389 -6.73001
upperback 1.8341 -1.35906 1.13817
thorax -4.38508 -0.511203 5.20273
lowerneck -11.1881 -9.82642 -18.408
upperneck 21.0936 -12.6163 13.5704
head 10.7198 -5.81682 6.21914
lclavicle 5.75482e-014 -1.23246e-014
lhumerus -29.7222 11.2604 75.8324
lradius 24.0316
lwrist -4.06357
lhand -13.0781 31.563
lfingers 7.12502
lthumb 13.0179 61.1369
rclavicle 5.75482e-014 -1.23246e-014
rhumerus -35.23 -9.38501 -78.995
rradius 25.4995
rwrist 5.46108
rhand -20.3695 12.679
rfingers 7.12502
rthumb 5.98309 -17.2165
956
root -3.71816 17.9064 -24.2277 -2.89736 142.482 5.26417
lfemur 1.52159 3.34704 -23.6661
ltibia 27.5422
lfoot -16.4999 0 -1.87058
ltoes -30.5354
rfemur -28.349 -13.6911 16.8034
rtibia 41.0248
rfoot -13.4483 0 -12.9672
rtoes 9.71847
lowerback 10.9028 -0.936886 -7.5888
upperback 1.93522 -1.94757 1.06185
thorax -3.78314 -0.821168 5.6666
lowerneck -11.5714 -9.52536 -18.0536
upperneck 20.7624 -12.2566 13.8018
head 10.5933 -5.59743 6.28916
lclavicle -2.09221e-014 3.18055e-015
lhumerus -28.9682 8.39596 75.812
lradius 26.817
lwrist -1.66116
lhand -12.3325 31.4269
lfingers 7.12502
lthumb 13.7366 60.9534
rclavicle -2.09221e-014 3.18055e-015
rhumerus -35.5624 -11.152 -77.5622
rradius 24.9397
rwrist 6.38127
rhand -20.3714 13.1758
rfingers 7.12502
rthumb 5.98127 -16.7197
957
root -3.43056 17.9478 -24.5547 -2.53909 140.936 6.36452
lfemur 5.26631 3.75875 -24.7968
ltibia 23.0895
lfoot -15.6818 0 -1.40358
ltoes -29.7086
rfemur -26.9277 -10.8186 15.4395
rtibia 30.0903
rfoot -15.6096 0 -12.6298
rtoes 17.2814
lowerback 10.3254 -1.31765 -8.4413
upperback 2.0123 -2.50349 0.878357
thorax -3.26585 -1.11563 5.99843
lowerneck -11.0255 -9.19941 -17.9847
upperneck 19.9687 -12.0269 14.5781
head 10.2076 -5.44185 6.60486
lclavicle 3.6477e-014 1.90833e-014
lhumerus -28.5642 4.7731 75.6731
lradius 29.8665
lwrist 2.11896
lhand -13.827 30.924
lfingers 7.12502
lthumb 12.2959 60.5425
rclavicle 3.6477e-014 1.90833e-014
rhumerus -35.993 -12.4062 -76.3236
rradius 24.6383
rwrist 6.83603
rhand -21.0587 12.3479
rfingers 7.12502
rthumb 5.31771 -17.5654
958
root -3.12233 17.9308 -24.8962 -2.40965 138.822 7.55071
lfemur 9.48462 5.59292 -25.7526
ltibia 18.5468
lfoot -15.1149 0 -1.58192
ltoes -30.5646
rfemur -26.3108 -6.39991 13.4717
rtibia 22.3997
rfoot -15.8525 0 -14.9049
rtoes 5.53424
lowerback 10.1322 -1.42159 -9.32474
upperback 1.86492 -2.73883 0.692119
thorax -3.24119 -1.22391 6.32282
lowerneck -12.0652 -8.8669 -16.5256
upperneck 20.939 -11.5041 13.4339
head 10.4765 -5.14728 6.0171
lclavicle 9.81996e-014 -2.70347e-014
lhumerus -28.6972 2.3816 74.9779
lradius 32.7389
lwrist 3.90756
lhand -13.7944 30.8603
lfingers 7.12502
lthumb 12.3273 60.4769
rclavicle 9.81996e-014 -2.70347e-014
rhumerus -39.3594 -3.96588 -79.3111
rradius 30.4324
rwrist -3.25308
rhand -22.0249 9.70273
rfingers 7.12502
rthumb 4.38474 -20.2319
959
root -2.82217 17.8653 -25.1203 -1.31415 137.409 6.29297
lfemur 10.4595 6.10931 -23.8056
ltibia 17.1584
lfoot -15.0725 0 -2.08398
ltoes -29.7553
rfemur -27.6738 -0.842016 13.8846
rtibia 20.3405
rfoot -20.2885 0 -18.7378
rtoes 3.38639
lowerback 10.54 -1.91316 -8.25893
upperback 1.01762 -3.3606 1.45119
thorax -4.27449 -1.47987 6.65049
lowerneck -11.1774 -8.34816 -16.6363
upperneck 20.6431 -10.8681 13.5445
head 10.1005 -4.88593 6.19616
lclavicle 4.88016e-014 1.51076e-014
lhumerus -29.0306 0.435971 74.3353
lradius 34.9817
lwrist 5.7323
lhand -13.3752 30.961
lfingers 7.12502
lthumb 12.7315 60.5528
rclavicle 4.88016e-014 1.51076e-014
rhumerus -39.737 -9.38623 -75.6349
rradius 28.1216
rwrist 1.63388
rhand -21.9544 12.2606
rfingers 7.12502
rthumb 4.45283 -17.6726
960
root -2.49619 17.7451 -25.44 -1.01897 135.766 8.35584
lfemur 12.938 6.35476 -26.0094
ltibia 15.5425
lfoot -15.2959 0 -1.71845
ltoes -34.5395
rfemur -29.3965 -3.51406 12.7872
rtibia 24.5579
rfoot -18.6109 0 -14.621
rtoes 13.8769
lowerback 9.66021 -1.80049 -9.22322
upperback 1.82495 -3.19431 0.68427
thorax -2.94793 -1.4692 6.2826
lowerneck -11.8214 -8.88791 -17.4701
upperneck 19.3984 -11.7395 15.3653
head 10.1192 -5.18091 6.82474
lclavicle -7.5737e-014 -2.38542e-015
lhumerus -26.5984 -1.67965 73.5314
lradius 36.3845
lwrist 7.28835
lhand -14.2061 30.7271
lfingers 7.12502
lthumb 11.9304 60.3672
rclavicle -7.5737e-014 -2.38542e-015
rhumerus -40.7226 -5.48189 -77.6573
rradius 31.6845
rwrist -5.22884
rhand -22.9244 10.748
rfingers 7.12502
rthumb 3.51613 -19.2028
961
root -2.12801 17.6903 -25.7349 -1.03878 135.197 8.47059
lfemur 13.995 5.01052 -26.2152
ltibia 16.6694
lfoot -14.6754 0 -1.09979
ltoes -36.1562
rfemur -30.2875 -6.90042 14.4954
rtibia 27.2333
rfoot -10.661 0 -17.6722
rtoes 7.06156
lowerback 10.5108 -2.3536 -9.41219
upperback 1.69466 -4.02261 1.19426
thorax -3.36107 -1.85221 7.07408
lowerneck -12.4716 -8.66668 -17.2397
upperneck 19.2919 -11.2656 14.7978
head 10.0602 -4.98622 6.62439
lclavicle 3.27995e-015 -3.97569e-015
lhumerus -27.2345 0.954637 73.0379
lradius 38.165
lwrist 6.78669
lhand -15.2708 30.5301
lfingers 7.12502
lthumb 10.9036 60.227
rclavicle 3.27995e-015 -3.97569e-015
rhumerus -40.3652 -10.5951 -73.7907
rradius 28.971
rwrist -0.597645
rhand -22.1683 12.3958
rfingers 7.12502
rthumb 4.24623 -17.5416
962
root -1.71255 17.6847 -26.0671 -1.57935 133.612 7.38144
lfemur 16.5316 4.35771 -25.3723
ltibia 17.4
lfoot -13.3489 0 1.1646
ltoes -42.3659
rfemur -30.0306 -8.59465 16.7294
rtibia 29.8663
rfoot -6.33434 0 -17.3412
rtoes 0.844945
lowerback 10.9822 -2.55301 -8.14918
upperback 2.20638 -4.10695 1.94975
thorax -3.09715 -1.92659 7.18413
lowerneck -13.095 -8.39152 -17.3339
upperneck 18.8121 -10.6958 14.552
head 9.89267 -4.74718 6.60592
lclavicle 7.61345e-014 -1.98785e-014
lhumerus -27.5346 4.19795 73.1818
lradius 39.0786
lwrist 6.63518
lhand -15.6041 30.6326
lfingers 7.12502
lthumb 10.5821 60.3462
rclavicle 7.61345e-014 -1.98785e-014
rhumerus -39.9967 -10.3654 -73.1541
rradius 28.3823
rwrist -3.8412
rhand -24.0086 9.78786
rfingers 7.12502
rthumb 2.46903 -20.1776
963
root -1.25549 17.7575 -26.3826 -0.983817 131.859 6.23622
lfemur 15.821 4.22872 -24.2836
ltibia 20.7891
lfoot -10.3204 0 1.52317
ltoes -40.6317
rfemur -29.5094 -7.67334 18.0976
rtibia 31.6223
rfoot -8.67161 0 -13.0072
rtoes 18.131
lowerback 10.5024 -2.66331 -6.98843
upperback 2.27229 -4.05767 2.62976
thorax -2.80532 -1.92615 7.20789
lowerneck -13.4838 -8.97504 -18.152
upperneck 18.6352 -11.3452 14.8214
head 10.0976 -5.07567 6.71929
lclavicle -5.30755e-014 1.43125e-014
lhumerus -28.6527 6.05229 73.6658
lradius 40.322
lwrist 8.27495
lhand -14.9586 31.4838
lfingers 7.12502
lthumb 11.2047 61.1646
rclavicle -5.30755e-014 1.43125e-014
rhumerus -40.3956 -21.9657 -65.7795
rradius 24.1768
rwrist 7.15747
rhand -22.4757 12.0918
rfingers 7.12502
rthumb 3.94942 -17.8514
